{"title":"The.Post.2017.DVDScr.XVID.AC3.HQ.Hive-CM8","magnet":"magnet:?xt=urn:btih:18f4753e2e4db5da867467699d2b8514df06035f&dn=The.Post.2017.DVDScr.XVID.AC3.HQ.Hive-CM8&tr=udp%3A%2F%2Ftracker.leechers-paradise.org%3A6969&tr=udp%3A%2F%2Fzer0day.ch%3A1337&tr=udp%3A%2F%2Fopen.demonii.com%3A1337&tr=udp%3A%2F%2Ftracker.coppersurfer.tk%3A6969&tr=udp%3A%2F%2Fexodus.desync.com%3A6969","uploader":"roflcopter2110","categoryP":"video","categoryS":"movies","size":"1724717056","seeders":"330","leechers":"113","description":"The.Post.2017.DVDScr.XVID.AC3.HQ.Hive-CM8\r\n <a href=\"\nhttps://i.imgur.com/kcmSIl7.jpg\" rel=\"nofollow\" target=\"_NEW\">\nhttps://i.imgur.com/kcmSIl7.jpg</a>\r\n\r\nThx Hive\r\n\r\nCM8 Doing It Right The First Time\r\n\r\nSource: a cool dude on the street\r\nthx\r\n\r\nNotes:\r\nanother goodie, hot title, gross meets budget now so free for all\r\nDon&#xB4;t forget watching a scr is not like the real thing, you should still all go to the cinema and support the Producers, thx\r\nWe especially sharing this for the people who cant visit the cinema due to illness or because it is a limited release that doesnt make it to their country,\r\nso that they also can experience some award nominations.\r\n\r\nEncode:\r\nquality was nice, not much to do\r\nenjoy\r\n\r\nScreeners:\r\nAnyone willing to help the cause?\r\nstill missing a few of the last good titles if you&apos;d like to share?\r\nhostiles, downsizing, phantom thread, gr.showman, money in the world, wonder etc.?\r\nContact us - we always respect your wishes.\r\nOnly serious people plz.\r\n\r\nVideo: 720x384 @bitrate 1700 2pass\r\nAudio: English Stereo\r\nSample: yes included\r\n\r\nGeneral\r\nComplete name: The.Post.2017.DVDScr.XVID.AC3.HQ.Hive-CM8.avi\r\nFormat: AVI\r\nFormat/Info: Audio Video Interleave\r\nFile size: 1.59 GiB\r\nDuration: 1h 55mn\r\nOverall bit rate: 1 967 Kbps\r\nWriting application: Nandub v1.0rc2\r\nWriting library: Nandub build 1853/release\r\n\r\nVideo\r\nID: 0\r\nFormat: MPEG-4 Visual\r\nFormat profile: Advanced <a href=\"/cdn-cgi/l/email-protection\" class=\"__cf_email__\" data-cfemail=\"84d7ede9f4e8e1c4c8b1\">[email&#xA0;protected]</a>\r\nFormat settings, BVOP: 2\r\nFormat settings, QPel: Yes\r\nFormat settings, GMC: No warppoints\r\nFormat settings, Matrix: Default (H.263)\r\nMuxing mode: Packed bitstream\r\nCodec ID: XVID\r\nCodec ID/Hint: XviD\r\nDuration: 1h 55mn\r\nBit rate: 1 699 Kbps\r\nWidth: 720 pixels\r\nHeight: 384 pixels\r\nDisplay aspect ratio: 1.85:1\r\nFrame rate: 30.000 fps\r\nColor space: YUV\r\nChroma subsampling: 4:2:0\r\nBit depth: 8 bits\r\nScan type: Progressive\r\nCompression mode: Lossy\r\nBits/(Pixel*Frame): 0.205\r\nStream size: 1.38 GiB (86%)\r\nWriting library: XviD 1.2.1 (UTC 2008-12-04)\r\n\r\nAudio\r\nID: 1\r\nFormat: AC-3\r\nFormat/Info: Audio Coding 3\r\nMode extension: CM (complete main)\r\nFormat settings, Endianness: Big\r\nCodec ID: 2000\r\nDuration: 1h 55mn\r\nBit rate mode: Constant\r\nBit rate: 256 Kbps\r\nChannel(s): 2 channels\r\nChannel positions: Front: L R\r\nSampling rate: 48.0 KHz\r\nBit depth: 16 bits\r\nCompression mode: Lossy\r\nDelay relative to video: 26ms\r\nStream size: 212 MiB (13%)\r\nAlignment: Split accross interleaves\r\nInterleave, duration: 33 ms (1.00 video frame)\r\nInterleave, preload duration: 500 ms\r\n\r\nPlot\r\nA cover-up that spanned four U.S. Presidents pushed the country&apos;s first female newspaper publisher and a hard-driving editor to join an unprecedented battle between the press and the government.\r\n\r\nCOME FIND US WE DONT BITE\r\n\r\nScreens: <a href=\"\nhttps://i.imgur.com/CkvLKb3.png\" rel=\"nofollow\" target=\"_NEW\">\nhttps://i.imgur.com/CkvLKb3.png</a> <a href=\"\nhttps://i.imgur.com/TOLWe1O.png\" rel=\"nofollow\" target=\"_NEW\">\nhttps://i.imgur.com/TOLWe1O.png</a> <a href=\"\nhttps://i.imgur.com/Y3lSFrb.png\" rel=\"nofollow\" target=\"_NEW\">\nhttps://i.imgur.com/Y3lSFrb.png</a> <a href=\"\nhttps://i.imgur.com/5eioiNs.png\" rel=\"nofollow\" target=\"_NEW\">\nhttps://i.imgur.com/5eioiNs.png</a> <a href=\"\nhttps://i.imgur.com/gUBKKAs.png\" rel=\"nofollow\" target=\"_NEW\">\nhttps://i.imgur.com/gUBKKAs.png</a>","last_updated":"2018-01-25T12:13:02.982Z","parsed":{"xt":"urn:btih:18f4753e2e4db5da867467699d2b8514df06035f","dn":"The.Post.2017.DVDScr.XVID.AC3.HQ.Hive-CM8","tr":["udp://exodus.desync.com:6969","udp://open.demonii.com:1337","udp://tracker.coppersurfer.tk:6969","udp://tracker.leechers-paradise.org:6969","udp://zer0day.ch:1337"],"infoHash":"18f4753e2e4db5da867467699d2b8514df06035f","infoHashBuffer":{"type":"Buffer","data":[24,244,117,62,46,77,181,218,134,116,103,105,157,43,133,20,223,6,3,95]},"name":"The.Post.2017.DVDScr.XVID.AC3.HQ.Hive-CM8","announce":["udp://exodus.desync.com:6969","udp://open.demonii.com:1337","udp://tracker.coppersurfer.tk:6969","udp://tracker.leechers-paradise.org:6969","udp://zer0day.ch:1337"],"urlList":[]}}